<svg xmlns="http://www.w3.org/2000/svg" width="24" height="24" viewBox="0 0 24 24" fill="none"> <path fill-rule="evenodd" clip-rule="evenodd" d="M20.4368 4.10111C20.2771 4.15661 16.1283 5.67664 11.2173 7.47897C5.71713 9.49751 2.24786 10.7922 2.18327 10.8503C2.04544 10.9744 1.97098 11.2217 2.0106 11.424C2.07849 11.7706 2.10306 11.7816 4.67713 12.6142C6.64592 13.251 7.04387 13.3671 7.12194 13.327C7.17322 13.3007 7.743 12.9692 8.38812 12.5904C9.03325 12.2115 11.469 10.7847 13.801 9.41976C18.1507 6.87376 18.1812 6.85763 18.1812 7.10331C18.1812 7.15521 16.7436 8.45142 14.1286 10.7572C11.8997 12.7226 10.0281 14.3786 9.9695 14.4373C9.86512 14.5418 9.85998 14.5848 9.71406 16.5855C9.60928 18.0218 9.57806 18.6624 9.60879 18.7461C9.66038 18.8866 9.85734 18.9898 9.99428 18.9482C10.0475 18.932 10.6744 18.3724 11.3874 17.7047C12.1004 17.037 12.7005 16.4907 12.721 16.4907C12.7414 16.4907 13.7975 17.2457 15.0678 18.1684C16.338 19.0912 17.4476 19.8818 17.5336 19.9255C17.8711 20.0967 18.3659 19.9617 18.5999 19.6345C18.6756 19.5287 19.0736 17.8637 20.349 12.3176C21.257 8.36859 22 5.08058 22 5.01084C22 4.7548 21.8943 4.53467 21.6665 4.3165C21.315 3.97973 20.9634 3.91816 20.4368 4.10111Z" fill="#0B5D51"></path> </svg>